<?xml version="1.0" encoding="UTF-8" standalone="no"?>
<!-- Created with Inkscape (http://www.inkscape.org/) -->

<svg
   xmlns:dc="http://purl.org/dc/elements/1.1/"
   xmlns:cc="http://creativecommons.org/ns#"
   xmlns:rdf="http://www.w3.org/1999/02/22-rdf-syntax-ns#"
   xmlns:svg="http://www.w3.org/2000/svg"
   xmlns="http://www.w3.org/2000/svg"
   xmlns:sodipodi="http://sodipodi.sourceforge.net/DTD/sodipodi-0.dtd"
   xmlns:inkscape="http://www.inkscape.org/namespaces/inkscape"
   version="1.1"
   id="svg4518"
   width="300"
   height="300"
   viewBox="0 0 300 300"
   sodipodi:docname="logo.svg"
   inkscape:version="0.92.4 (5da689c313, 2019-01-14)">
  <metadata
     id="metadata4524">
    <rdf:RDF>
      <cc:Work
         rdf:about="">
        <dc:format>image/svg+xml</dc:format>
        <dc:type
           rdf:resource="http://purl.org/dc/dcmitype/StillImage" />
        <dc:title />
      </cc:Work>
    </rdf:RDF>
  </metadata>
  <defs
     id="defs4522" />
  <sodipodi:namedview
     pagecolor="#ffffff"
     bordercolor="#666666"
     borderopacity="1"
     objecttolerance="10"
     gridtolerance="10"
     guidetolerance="10"
     inkscape:pageopacity="0"
     inkscape:pageshadow="2"
     inkscape:window-width="1920"
     inkscape:window-height="986"
     id="namedview4520"
     showgrid="false"
     inkscape:pagecheckerboard="true"
     inkscape:zoom="1.7984082"
     inkscape:cx="56.460876"
     inkscape:cy="200.91381"
     inkscape:window-x="-11"
     inkscape:window-y="-11"
     inkscape:window-maximized="1"
     inkscape:current-layer="svg4518" />
  <path
     style="fill:#000000"
     d=""
     id="path4552"
     inkscape:connector-curvature="0" />
  <path
     style="fill:#000000"
     d=""
     id="path4550"
     inkscape:connector-curvature="0" />
  <path
     style="fill:#000000"
     d=""
     id="path4548"
     inkscape:connector-curvature="0" />
  <path
     style="fill:#000000"
     d=""
     id="path4538"
     inkscape:connector-curvature="0" />
  <path
     style="fill:#000000"
     d=""
     id="path4536"
     inkscape:connector-curvature="0" />
  <path
     style="fill:#000000"
     d=""
     id="path4534"
     inkscape:connector-curvature="0" />
  <path
     style="fill:#000000"
     d=""
     id="path4530"
     inkscape:connector-curvature="0" />
  <path
     style="fill:#000000"
     d=""
     id="path4528"
     inkscape:connector-curvature="0" />
  <g
     id="g4573"
     transform="matrix(1.1656631,0,0,1.241101,284.89969,-38.934038)"
     style="fill:#d19b25;fill-opacity:1;stroke:none">
    <path
       style="fill:#d19b25;fill-opacity:1;stroke:none"
       d="m -234.48766,267.92663 c -0.60921,-2.84063 -1.74791,-9.25313 -2.53045,-14.25 -0.78254,-4.99687 -1.90137,-14.26021 -2.48629,-20.58521 -0.58492,-6.325 -1.75947,-24.1 -2.61012,-39.5 -0.87805,-15.89614 -1.78376,-54.58527 -2.0952,-89.50001 -0.38313,-42.95248 -0.2224,-62.32935 0.53295,-64.24999 0.94043,-2.391243 1.62893,-2.75 5.27754,-2.75 2.42521,0 4.93461,0.668424 5.94616,1.583866 1.59638,1.444706 3.27267,1.445243 19.07874,0.0061 9.53072,-0.867745 24.75359,-2.011395 33.82859,-2.541427 9.075,-0.530032 28.875,-1.253095 44,-1.606806 15.125,-0.353711 41.450007,-0.150857 58.500007,0.450786 17.05,0.601643 38.2,1.766621 47,2.588841 8.8,0.82222 17.892109,1.500277 20.2046894,1.506793 4.03452,0.01137 4.23186,-0.133031 4.87627,-3.567992 0.36937,-1.968911 1.1964701,-3.78126 1.8380101,-4.027442 0.64154,-0.246182 2.94206993,-0.07868 5.1122899,0.372221 3.5915,0.746205 3.9716,1.13032 4.23266,4.277443 0.15776,1.901689 0.20933,5.707617 0.11461,8.457617 -0.0947,2.75 -0.23461,52.024997 -0.31087,109.5 -0.0763,57.475 -0.34769,105.37431 -0.60316,106.4429 -0.37227,1.55711 0.32976,2.17072 3.5355002,3.09025 3.7889704,1.08681 4.0000004,1.35361 4.0000004,5.0571 v 3.90975 l -11.0000006,0.32042 c -6.05,0.17624 -25.8499994,-0.1976 -43.9999994,-0.83074 -18.15,-0.63315 -66.300007,-1.51331 -107.000007,-1.95593 -71.84706,-0.78133 -74.03992,-0.74989 -75.37197,1.08075 -0.92784,1.27512 -2.60056,1.8855 -5.16714,1.8855 -3.7607,0 -3.80522,-0.0469 -4.90281,-5.16479 z m 230.4665164,-6.87499 c 0.3534401,-0.57188 -2.20751,-4.0633 -5.69099,-7.75871 -3.4834794,-3.69542 -10.1991194,-11.44001 -14.9236394,-17.21022 -4.72452,-5.77021 -15.99656,-20.39129 -25.04897,-32.49129 -9.05241,-12.1 -20.45115,-27.625 -25.33053,-34.5 -4.87938,-6.875 -10.93234,-14.9559 -13.45103,-17.95755 -2.8074,-3.34573 -4.57943,-6.44137 -4.57943,-8 v -2.54245 l -18.985437,0.2632 c -16.50591,0.22883 -19.20189,0.49004 -20.64292,2 -0.91162,0.95524 -8.30427,11.4118 -16.42812,23.2368 -8.12384,11.825 -21.29397,30.5 -29.26695,41.5 -7.97298,11 -19.18679,26.18779 -24.91957,33.75065 -5.73279,7.56286 -10.23582,14.31286 -10.00675,15 0.32822,0.98456 17.14225,1.25873 79.33312,1.2936 53.448117,0.03 84.478467,0.45236 96.150517,1.30884 9.47864,0.69552 20.05364,1.63105 23.5,2.07894 3.446359,0.4479 7.0270494,0.87142 7.9570894,0.94117 0.93004,0.0697 1.98016,-0.3411 2.33361,-0.91298 z M -123.69233,211.15604 c -2.3313,-1.10079 -3.52844,-2.47666 -3.97617,-4.5698 -0.35234,-1.64715 -0.68696,-5.01982 -0.74361,-7.49482 -0.0567,-2.475 0.27479,-5.09588 0.73655,-5.82418 0.50491,-0.79637 2.19283,-1.19497 4.23468,-1 2.95905,0.28254 3.43036,0.70951 3.66935,3.32418 0.15081,1.65 0.49688,4.0125 0.76905,5.25 0.28994,1.31831 1.24136,2.25 2.29765,2.25 0.99155,0 3.8801,-0.7078 6.419,-1.57289 2.53891,-0.8651 5.0498,-2.1026 5.57975,-2.75 0.63009,-0.76973 0.33178,-4.07518 -0.86197,-9.55103 -1.00405,-4.60566 -2.27492,-8.82331 -2.82417,-9.37256 -0.66484,-0.66484 -4.28343,-0.59276 -10.82608,0.21566 -5.40509,0.66786 -12.74792,1.06051 -16.3174,0.87255 -5.33625,-0.28098 -6.55192,-0.66688 -6.83855,-2.17082 -0.19173,-1.00601 -0.0963,-2.83426 0.21202,-4.06278 0.51561,-2.05436 1.47501,-2.329 11.95015,-3.42091 6.26424,-0.65297 13.02979,-1.18722 15.03455,-1.18722 2.64169,0 4.24335,-0.68815 5.81874,-2.5 1.26821,-1.45857 3.24811,-2.5 4.75284,-2.5 1.49611,0 3.10361,0.83983 3.82815,2 1.064347,1.70429 2.332017,2 8.573877,2 4.02867,0 7.60902,0.28417 7.95634,0.63148 0.34732,0.34732 0.19316,1.45049 -0.34256,2.45149 -0.63356,1.18383 -3.04653,2.22775 -6.90309,2.98648 -3.26098,0.64156 -6.12069,1.67589 -6.35492,2.29851 -0.23422,0.62262 0.40544,5.18204 1.42148,10.13204 1.01603,4.95 1.8549,10.63575 1.86414,12.63499 0.0124,2.69199 -0.5669,4.00469 -2.2332,5.06008 -1.2375,0.78379 -4.701827,2.46149 -7.698517,3.7282 -2.99668,1.26672 -7.79166,2.62109 -10.65551,3.00972 -3.84843,0.52225 -6.07729,0.29568 -8.54257,-0.86837 z m -91.94829,28.86252 c 3.55739,-5.18493 13.94621,-19.55214 23.08626,-31.92714 9.14006,-12.375 23.29064,-31.66963 31.44573,-42.87697 8.15509,-11.20733 14.88041,-21.10733 14.94516,-22 0.10568,-1.4569 -1.83349,-1.58445 -18.94474,-1.24612 -10.48436,0.2073 -20.07088,0.0568 -21.30338,-0.33433 -1.92194,-0.61 -2.19772,-1.30416 -1.93753,-4.87691 l 0.30338,-4.16567 7.5,-0.67118 c 4.125,-0.36915 18.87639,-1.15665 32.78087,-1.75 13.90447,-0.59335 38.29932,-1.07882 54.210787,-1.07882 15.91145,0 33.55931,0.50362 39.21746,1.11917 5.65815,0.61554 11.3008,1.5044 12.53922,1.97524 1.23842,0.47085 2.25167,1.45622 2.25167,2.18971 0,0.73349 -0.58033,2.12727 -1.28963,3.09729 -1.12687,1.54109 -3.71861,1.83705 -20.53615,2.34512 -10.58559,0.3198 -19.49635,0.98567 -19.80168,1.47971 -0.30533,0.49404 2.10758,4.13724 5.36204,8.096 3.25445,3.95877 16.91341,21.82276 30.35325,39.69776 13.43983,17.875 27.71581,37.3375 31.7244,43.25 4.1020694,6.0504 7.9785894,10.75 8.8672594,10.75 1.3456501,0 1.4846601,-0.99729 0.94088,-6.75 -0.35093,-3.7125 -1.14238,-15.3 -1.75878,-25.75 -0.6164,-10.45 -1.17492,-50.95 -1.24116,-90 l -0.12043,-71 -7.9999994,-0.70888 c -4.4,-0.389885 -40.85,-0.827118 -81,-0.97163 -59.689857,-0.214841 -77.649447,0.04315 -98.500007,1.414965 -14.025,0.922742 -28.07785,1.410515 -31.22855,1.08394 -4.73814,-0.491115 -5.83707,-0.310974 -6.35623,1.041937 -0.34522,0.89964 -0.11665,23.7991 0.50794,50.887678 0.6246,27.0886 1.55897,57.80199 2.07639,68.25199 0.51741,10.45 1.67518,32.05 2.57282,48 0.89763,15.95 1.8113,29.59992 2.03037,30.33316 0.21907,0.73323 0.94643,1.15045 1.61636,0.92714 0.66993,-0.22331 4.12864,-4.64823 7.68602,-9.83316 z M -98.828403,114.47542 c -0.3388,-0.3388 -27.743677,-0.6763 -60.899717,-0.75 l -60.2837,-0.134 -0.6225,-3.82969 c -0.55118,-3.39099 -0.35069,-3.93301 1.75027,-4.73179 1.30501,-0.49617 15.0775,-1.41812 30.60553,-2.04877 16.96025,-0.68883 43.80434,-0.90681 67.23278,-0.54596 21.450007,0.33037 47.775007,1.09559 58.500007,1.70049 10.725,0.60489 25.35,1.62988 32.5,2.27776 l 13,1.17795 0.30209,3.09887 0.30208,3.09886 -7.70296,0.65114 c -4.23663,0.35813 -22.63507,0.65114 -40.88542,0.65114 -18.25035,0 -33.45966,-0.2772 -33.79846,-0.616 z M -137.54574,85.384975 c -5.225,-0.160248 -10.53765,-0.531739 -11.80588,-0.825535 -2.02282,-0.4686 -2.26833,-1.049064 -2,-4.728485 0.3001,-4.1151 0.39086,-4.210109 4.80588,-5.030807 2.475,-0.460073 15.3,-0.56786 28.5,-0.239528 13.49755,0.335734 28.901167,1.308956 35.200047,2.22399 6.16002,0.894861 11.73343,1.956673 12.38535,2.359582 0.7032,0.434604 0.93134,1.744446 0.5609,3.220402 -0.35816,1.427015 -1.58849,2.746174 -2.88535,3.093679 -1.24352,0.333211 -14.18594,0.518588 -28.760937,0.41195 -14.57501,-0.106638 -30.77501,-0.325 -36.00001,-0.485248 z"
       id="path4575"
       inkscape:connector-curvature="0" />
  </g>
</svg>
